<?xml version="1.0" encoding="UTF-8"?>
<svg id="_레이어_1" data-name="레이어 1" xmlns="http://www.w3.org/2000/svg" viewBox="0 0 400 400">
  <defs>
    <style>
      .cls-1 {
        fill: #077dc7;
      }

      .cls-1, .cls-2 {
        stroke-width: 0px;
      }

      .cls-2 {
        fill: #fff;
      }
    </style>
  </defs>
  <path class="cls-2" d="m91.2,103.15h17.66c7.06,0,12.71,5.36,12.71,12.22,0,3.87-3.08,7.42-6.42,9.29,3.85,1.75,7.58,6.3,7.58,11.04,0,6.92-5.78,12.47-12.84,12.47h-18.68v-45.02Zm3.02,20.27h15.41c4.88-.19,8.93-3.74,8.93-8.48,0-5.11-4.3-8.92-9.44-8.92h-14.89v17.4Zm0,21.89h15.92c5.14,0,9.44-3.93,9.44-9.17,0-5.61-4.3-9.85-9.44-9.85h-15.92v19.02Z"/>
  <path class="cls-2" d="m186.2,148.17h-3.4l-5.84-13.66h-23.11l-5.78,13.66h-3.47l19.26-45.02h3.08l19.26,45.02Zm-10.4-16.52l-10.34-24.38-10.53,24.38h20.87Z"/>
  <path class="cls-2" d="m238.89,106.02h-25.87v17.52h23.95v2.99h-23.95v18.71h25.87v2.93h-29.02v-45.02h29.02v2.87Z"/>
  <path class="cls-2" d="m278.48,123.16l19.07,25h-3.79l-17.33-22.64-8.28,8.98v13.66h-3.15v-45.02h3.15v27.25l25.1-27.25h3.72l-18.49,20.02Z"/>
  <path class="cls-2" d="m100.72,222.62c-5.91,0-11.1-3.3-13.42-8.11l2.63-1.25c1.73,3.68,5.78,6.36,10.79,6.36,6.61,0,11.69-4.3,11.69-10.54v-31.93h3.08v31.86c0,8.29-6.74,13.59-14.77,13.59Z"/>
  <path class="cls-2" d="m297.3,222.19h-3.02l-29.66-39.66v39.66h-3.08v-45.02h3.08l29.66,39.66v-39.66h3.02v45.02Z"/>
  <path class="cls-2" d="m89.94,251.18h15.99c8.02,0,14.45,6.24,14.45,13.34.25,5.86-4.75,12.41-11.81,13.16l13.93,18.52h-3.66l-14.06-18.39h-11.75v18.39h-3.08v-45.02Zm27.48,13.22c0-5.74-4.81-10.35-10.85-10.35h-13.55v20.89h13.55c6.04,0,10.85-4.8,10.85-10.54Z"/>
  <path class="cls-2" d="m300.49,296.2h-3.08v-38.54l-15.54,28.62h-2.12l-15.73-28.62v38.54h-3.02v-45.02h3.02l16.82,30.8,16.56-30.8h3.08v45.02Z"/>
  <polygon class="cls-1" points="158.55 221.18 136.07 198.69 158.55 176.21 160.67 178.32 140.3 198.69 160.67 219.06 158.55 221.18"/>
  <polygon class="cls-1" points="221.05 221.18 218.93 219.06 239.3 198.69 218.93 178.32 221.05 176.21 243.53 198.69 221.05 221.18"/>
  <rect class="cls-1" x="166.02" y="197.2" width="47.55" height="2.99" transform="translate(-71.79 282.8) rotate(-64.14)"/>
  <polygon class="cls-1" points="158.55 295.19 136.07 272.71 158.55 250.23 160.67 252.34 140.3 272.71 160.67 293.08 158.55 295.19"/>
  <polygon class="cls-1" points="221.05 295.19 218.93 293.08 239.3 272.71 218.93 252.34 221.05 250.23 243.53 272.71 221.05 295.19"/>
  <rect class="cls-1" x="166.02" y="271.21" width="47.55" height="2.99" transform="translate(-138.39 324.53) rotate(-64.14)"/>
  <polygon class="cls-2" points="321.35 296.85 337.66 275.06 332.67 267.43 328.08 268.26 328.3 267.43 332.75 248.57 316.45 270.36 321.43 277.99 326.02 277.16 325.8 277.99 321.35 296.85"/>
</svg>