<?xml version="1.0" encoding="UTF-8"?>
<svg id="_레이어_1" data-name="레이어 1" xmlns="http://www.w3.org/2000/svg" viewBox="0 0 400 200">
  <defs>
    <style>
      .cls-1 {
        fill: #077dc7;
      }

      .cls-1, .cls-2 {
        stroke-width: 0px;
      }

      .cls-2 {
        fill: #161519;
      }
    </style>
  </defs>
  <path class="cls-2" d="m33.69,89.58h8.17c3.27,0,5.88,2.48,5.88,5.66,0,1.79-1.43,3.43-2.97,4.3,1.78.81,3.51,2.91,3.51,5.11,0,3.2-2.67,5.77-5.94,5.77h-8.65v-20.84Zm1.4,9.38h7.13c2.26-.09,4.13-1.73,4.13-3.92,0-2.37-1.99-4.13-4.37-4.13h-6.89v8.05Zm0,10.13h7.37c2.38,0,4.37-1.82,4.37-4.24,0-2.6-1.99-4.56-4.37-4.56h-7.37v8.8Z"/>
  <path class="cls-2" d="m77.66,110.42h-1.57l-2.7-6.32h-10.7l-2.67,6.32h-1.6l8.91-20.84h1.43l8.91,20.84Zm-4.81-7.65l-4.78-11.28-4.87,11.28h9.66Z"/>
  <path class="cls-2" d="m102.05,90.91h-11.97v8.11h11.08v1.39h-11.08v8.66h11.97v1.36h-13.43v-20.84h13.43v1.33Z"/>
  <path class="cls-2" d="m120.37,98.85l8.82,11.57h-1.75l-8.02-10.48-3.83,4.16v6.32h-1.46v-20.84h1.46v12.61l11.62-12.61h1.72l-8.56,9.26Z"/>
  <path class="cls-2" d="m142.42,110.52c-2.73,0-5.14-1.53-6.21-3.75l1.22-.58c.8,1.7,2.67,2.94,4.99,2.94,3.06,0,5.41-1.99,5.41-4.88v-14.78h1.43v14.75c0,3.84-3.12,6.29-6.83,6.29Z"/>
  <path class="cls-2" d="m233.4,110.42h-1.4l-13.73-18.35v18.35h-1.43v-20.84h1.43l13.73,18.35v-18.35h1.4v20.84Z"/>
  <path class="cls-2" d="m251.92,89.58h7.4c3.71,0,6.69,2.89,6.69,6.18.12,2.71-2.2,5.74-5.47,6.09l6.45,8.57h-1.69l-6.51-8.51h-5.44v8.51h-1.43v-20.84Zm12.72,6.12c0-2.66-2.23-4.79-5.02-4.79h-6.27v9.67h6.27c2.79,0,5.02-2.22,5.02-4.88Z"/>
  <path class="cls-2" d="m349.37,110.42h-1.43v-17.84l-7.19,13.25h-.98l-7.28-13.25v17.84h-1.4v-20.84h1.4l7.78,14.26,7.67-14.26h1.43v20.84Z"/>
  <polygon class="cls-1" points="169.21 110.38 158.83 100 169.21 89.62 170.14 90.55 160.69 100 170.14 109.45 169.21 110.38"/>
  <polygon class="cls-1" points="198.09 110.38 197.16 109.45 206.61 100 197.16 90.55 198.09 89.62 208.47 100 198.09 110.38"/>
  <rect class="cls-1" x="172.65" y="99.34" width="22.01" height="1.31" transform="translate(15.49 224.29) rotate(-65.04)"/>
  <polygon class="cls-1" points="283.7 110.38 273.32 100 283.7 89.62 284.63 90.55 275.18 100 284.63 109.45 283.7 110.38"/>
  <polygon class="cls-1" points="312.58 110.38 311.65 109.45 321.1 100 311.65 90.55 312.58 89.62 322.96 100 312.58 110.38"/>
  <rect class="cls-1" x="287.13" y="99.34" width="22.01" height="1.31" transform="translate(81.66 328.08) rotate(-65.04)"/>
  <polygon class="cls-2" points="359.1 110.66 366.31 101.04 364.11 97.67 362.08 98.03 362.17 97.67 364.14 89.34 356.94 98.96 359.14 102.33 361.17 101.97 361.07 102.33 359.1 110.66"/>
</svg>