<?xml version="1.0" encoding="UTF-8"?>
<svg id="_레이어_1" data-name="레이어 1" xmlns="http://www.w3.org/2000/svg" viewBox="0 0 400 400">
  <defs>
    <style>
      .cls-1, .cls-2 {
        stroke-width: 0px;
      }

      .cls-2 {
        fill: #077dc7;
      }
    </style>
  </defs>
  <path class="cls-1" d="m92.22,102.51h17.77c7.11,0,12.79,5.4,12.79,12.3,0,3.89-3.1,7.47-6.46,9.35,3.88,1.76,7.63,6.34,7.63,11.11,0,6.97-5.82,12.55-12.92,12.55h-18.81v-45.32Zm3.04,20.4h15.51c4.91-.19,8.98-3.77,8.98-8.54,0-5.15-4.33-8.98-9.5-8.98h-14.99v17.51Zm0,22.03h16.03c5.17,0,9.5-3.95,9.5-9.23,0-5.65-4.33-9.92-9.5-9.92h-16.03v19.14Z"/>
  <path class="cls-1" d="m187.84,147.83h-3.42l-5.88-13.75h-23.26l-5.82,13.75h-3.49l19.39-45.32h3.1l19.38,45.32Zm-10.47-16.63l-10.4-24.54-10.6,24.54h21Z"/>
  <path class="cls-1" d="m240.88,105.4h-26.04v17.64h24.1v3.01h-24.1v18.83h26.04v2.95h-29.21v-45.32h29.21v2.89Z"/>
  <path class="cls-1" d="m280.73,122.66l19.19,25.17h-3.81l-17.45-22.79-8.34,9.04v13.75h-3.17v-45.32h3.17v27.43l25.27-27.43h3.75l-18.61,20.15Z"/>
  <path class="cls-1" d="m101.81,222.77c-5.95,0-11.18-3.33-13.51-8.16l2.65-1.26c1.75,3.7,5.82,6.4,10.86,6.4,6.66,0,11.76-4.33,11.76-10.61v-32.14h3.1v32.07c0,8.35-6.79,13.68-14.86,13.68Z"/>
  <path class="cls-1" d="m299.68,222.33h-3.04l-29.85-39.92v39.92h-3.1v-45.32h3.1l29.85,39.92v-39.92h3.04v45.32Z"/>
  <path class="cls-1" d="m90.95,251.52h16.09c8.08,0,14.54,6.28,14.54,13.43.26,5.9-4.78,12.49-11.89,13.24l14.02,18.64h-3.68l-14.15-18.52h-11.83v18.52h-3.1v-45.32Zm27.66,13.31c0-5.77-4.85-10.42-10.92-10.42h-13.63v21.03h13.63c6.08,0,10.92-4.83,10.92-10.61Z"/>
  <path class="cls-1" d="m302.89,296.84h-3.1v-38.79l-15.64,28.81h-2.13l-15.83-28.81v38.79h-3.04v-45.32h3.04l16.93,31.01,16.67-31.01h3.1v45.32Z"/>
  <polygon class="cls-2" points="160.02 221.32 137.38 198.68 160.02 176.05 162.14 178.18 141.64 198.68 162.14 219.19 160.02 221.32"/>
  <polygon class="cls-2" points="222.93 221.32 220.8 219.19 241.3 198.68 220.8 178.18 222.93 176.05 245.56 198.68 222.93 221.32"/>
  <rect class="cls-2" x="167.54" y="197.18" width="47.87" height="3.01" transform="translate(-70.84 284.3) rotate(-64.14)"/>
  <polygon class="cls-2" points="160.02 295.82 137.38 273.19 160.02 250.56 162.14 252.69 141.64 273.19 162.14 293.69 160.02 295.82"/>
  <polygon class="cls-2" points="222.93 295.82 220.8 293.69 241.3 273.19 220.8 252.69 222.93 250.56 245.56 273.19 222.93 295.82"/>
  <rect class="cls-2" x="167.54" y="271.68" width="47.87" height="3.01" transform="translate(-137.88 326.3) rotate(-64.14)"/>
  <polygon class="cls-1" points="323.89 297.49 340.3 275.56 335.29 267.87 330.67 268.71 330.88 267.87 335.36 248.89 318.95 270.82 323.97 278.51 328.59 277.67 328.37 278.51 323.89 297.49"/>
</svg>